<svg xmlns="http://www.w3.org/2000/svg" viewBox="-62.793 16.98 9.203 40.25" role="img" aria-label="Mapa de Chile por regiones">
  <style>
    .cl-region {
      fill: #3b7a9e;
      stroke: #ffffff;
      stroke-width: 0.08;
      stroke-linejoin: round;
      transition: fill 0.15s ease;
    }
    .cl-region:hover {
      fill: #f2a541;
    }
  </style>
  <g>
    <path id="cl-ar" class="cl-region" data-name="La Araucanía" d="M-60.23,38.49L-60.218,38.43L-60.132,38.385L-60.07,38.325L-60.058,38.28L-59.911,38.16L-59.898,38.13L-59.972,38.085L-59.972,38.01L-59.96,37.965L-59.911,37.92L-59.898,37.83L-59.837,37.8L-59.886,37.77L-59.911,37.71L-59.911,37.665L-59.874,37.635L-59.861,37.59L-59.837,37.56L-59.726,37.56L-59.567,37.515L-59.53,37.56L-59.432,37.575L-59.432,37.605L-59.321,37.59L-59.284,37.65L-59.272,37.71L-59.284,37.725L-59.223,37.8L-59.125,37.815L-59.051,37.89L-59.026,37.89L-58.99,37.95L-58.891,37.935L-58.842,37.995L-58.769,37.965L-58.683,37.995L-58.646,38.055L-58.646,38.19L-58.523,38.13L-58.511,38.085L-58.449,38.025L-58.363,38.04L-58.179,38.025L-58.069,38.145L-58.081,38.265L-58.056,38.4L-57.946,38.505L-57.934,38.625L-57.946,38.655L-57.983,38.67L-57.983,38.745L-58.032,38.82L-58.179,38.835L-58.191,38.82L-58.425,38.97L-58.4,39.015L-58.413,39.135L-58.388,39.18L-58.376,39.3L-58.4,39.375L-58.437,39.405L-58.437,39.465L-58.462,39.495L-58.449,39.615L-58.498,39.69L-58.634,39.69L-58.744,39.57L-58.818,39.54L-58.879,39.48L-58.977,39.525L-59.014,39.57L-59.26,39.57L-59.284,39.54L-59.383,39.54L-59.407,39.51L-59.481,39.525L-59.518,39.495L-59.616,39.48L-59.69,39.495L-59.726,39.45L-59.726,39.375L-59.776,39.39L-59.812,39.45L-59.886,39.48L-59.972,39.45L-60.009,39.405L-59.984,39.345L-59.997,39.24L-60.058,39.015L-60.205,38.685L-60.23,38.49Z"><title>La Araucanía</title></path>
    <path id="cl-bi" class="cl-region" data-name="Bío-Bío" d="M-60.365,37.335L-60.328,37.155L-60.242,37.08L-60.267,37.005L-60.242,36.915L-60.218,36.9L-60.144,36.93L-60.144,36.975L-60.119,36.975L-60.082,37.035L-60.107,37.11L-60.144,37.11L-60.168,37.14L-60.119,37.14L-60.082,37.185L-60.033,37.185L-59.96,37.14L-59.96,36.96L-59.935,36.93L-59.935,36.855L-59.972,36.84L-59.984,36.75L-59.923,36.675L-59.911,36.57L-59.8,36.54L-59.788,36.495L-59.739,36.465L-59.702,36.39L-59.604,36.39L-59.554,36.435L-59.542,36.48L-59.554,36.54L-59.407,36.645L-59.37,36.72L-59.383,36.78L-59.333,36.84L-59.235,36.855L-59.162,36.945L-59.112,36.945L-59.051,37.005L-59.039,37.065L-59.063,37.11L-59.1,37.125L-59.088,37.14L-59.014,37.11L-58.867,37.125L-58.805,37.05L-58.634,37.08L-58.621,36.99L-58.572,36.945L-58.511,36.945L-58.474,36.975L-58.474,37.005L-58.4,37.005L-58.363,37.02L-58.351,37.05L-58.265,37.035L-58.167,37.065L-58.142,37.11L-58.167,37.23L-58.241,37.305L-58.167,37.455L-58.179,37.62L-58.241,37.68L-58.204,37.725L-58.155,37.92L-58.13,37.935L-58.118,38.01L-58.069,38.055L-58.056,38.115L-58.081,38.16L-58.155,38.19L-58.191,38.16L-58.376,38.175L-58.413,38.145L-58.462,38.235L-58.511,38.25L-58.535,38.295L-58.597,38.295L-58.597,38.34L-58.621,38.37L-58.683,38.37L-58.732,38.325L-58.756,38.265L-58.744,38.1L-58.781,38.1L-58.842,38.145L-58.928,38.07L-59.051,38.055L-59.137,37.95L-59.284,37.905L-59.37,37.8L-59.383,37.725L-59.493,37.725L-59.518,37.68L-59.628,37.65L-59.677,37.68L-59.739,37.68L-59.726,37.815L-59.751,37.875L-59.8,37.905L-59.812,37.995L-59.837,38.01L-59.776,38.07L-59.776,38.205L-59.812,38.25L-59.886,38.28L-59.911,38.325L-59.96,38.34L-59.96,38.385L-59.935,38.4L-59.947,38.535L-60.033,38.55L-60.07,38.505L-60.07,38.475L-60.132,38.535L-60.181,38.55L-60.242,38.475L-60.242,38.37L-60.218,38.325L-60.23,38.235L-60.181,38.19L-60.181,38.055L-60.279,37.83L-60.353,37.74L-60.365,37.59L-60.328,37.515L-60.291,37.5L-60.291,37.455L-60.365,37.395L-60.365,37.335ZM-60.525,38.265L-60.475,38.28L-60.414,38.37L-60.426,38.43L-60.475,38.505L-60.525,38.505L-60.586,38.4L-60.598,38.34L-60.586,38.28L-60.549,38.25L-60.525,38.265Z"><title>Bío-Bío</title></path>
    <path id="cl-ll" class="cl-region" data-name="Los Lagos" d="M-61.531,43.845L-61.298,43.515L-60.954,43.23L-60.954,43.2L-60.905,43.14L-60.893,43.05L-60.844,43.02L-60.807,42.885L-60.758,42.855L-60.77,42.78L-60.758,42.69L-60.721,42.66L-60.733,42.6L-60.782,42.555L-60.782,42.405L-60.746,42.345L-60.77,42.285L-60.758,42.165L-60.672,42.105L-60.66,42.06L-60.672,41.925L-60.647,41.895L-60.672,41.865L-60.672,41.79L-60.549,41.535L-60.488,41.355L-60.574,41.115L-60.561,41.1L-60.586,40.98L-60.561,40.92L-60.525,40.905L-60.537,40.845L-60.512,40.74L-60.488,40.725L-60.488,40.635L-60.414,40.56L-60.439,40.5L-60.426,40.41L-60.439,40.365L-60.414,40.245L-60.365,40.185L-60.316,40.17L-60.267,40.23L-60.107,40.215L-60.07,40.275L-59.788,40.29L-59.776,40.32L-59.739,40.32L-59.64,40.395L-59.628,40.47L-59.518,40.56L-59.444,40.575L-59.419,40.62L-59.309,40.59L-59.039,40.605L-58.965,40.56L-58.928,40.575L-58.904,40.53L-58.855,40.5L-58.781,40.515L-58.756,40.545L-58.744,40.59L-58.769,40.665L-58.842,40.74L-58.83,40.815L-58.781,40.845L-58.769,40.905L-58.781,40.995L-58.744,41.04L-58.756,41.16L-58.781,41.19L-58.756,41.295L-58.805,41.355L-58.756,41.415L-58.744,41.535L-58.756,41.64L-58.732,41.655L-58.683,41.82L-58.707,41.865L-58.707,41.985L-58.67,42.015L-58.67,42.15L-58.744,42.21L-58.83,42.225L-58.867,42.255L-58.916,42.24L-58.941,42.195L-59.026,42.225L-58.99,42.33L-58.916,42.375L-58.916,42.555L-59.002,42.69L-59.014,42.825L-58.99,42.84L-58.99,42.885L-58.953,42.915L-58.928,42.975L-58.867,42.99L-58.842,43.05L-58.683,43.14L-58.67,43.17L-58.683,43.35L-58.707,43.38L-58.769,43.365L-58.805,43.41L-58.769,43.455L-58.769,43.485L-58.732,43.485L-58.658,43.56L-58.584,43.575L-58.548,43.635L-58.572,43.74L-58.683,43.8L-58.609,43.89L-58.609,43.98L-58.646,44.01L-58.683,44.115L-58.707,44.13L-58.793,44.115L-58.842,44.04L-58.842,43.995L-58.891,44.025L-59.063,43.995L-59.137,43.905L-59.211,43.875L-59.235,43.755L-59.284,43.785L-59.333,43.86L-59.37,43.86L-59.407,43.83L-59.481,43.845L-59.579,43.83L-59.604,43.8L-59.677,43.815L-59.714,43.77L-59.837,43.8L-59.972,43.755L-60.353,43.695L-60.475,43.65L-60.598,43.65L-60.819,43.77L-61.077,43.815L-61.495,43.95L-61.544,43.92L-61.531,43.845Z"><title>Los Lagos</title></path>
    <path id="cl-li" class="cl-region" data-name="Libertador General Bernardo O'Higgins" d="M-59.039,34.56L-59.014,34.5L-59.026,34.395L-58.965,34.32L-59.002,34.125L-58.941,34.035L-58.941,34.005L-58.904,33.975L-58.904,33.945L-58.818,33.84L-58.732,33.855L-58.634,33.945L-58.56,33.93L-58.462,33.96L-58.437,33.99L-58.339,33.975L-58.253,34.11L-58.118,34.11L-58.106,34.035L-58.081,34.035L-58.069,33.99L-58.032,33.975L-57.995,33.885L-57.921,33.87L-57.897,33.84L-57.835,33.855L-57.713,33.795L-57.627,33.795L-57.565,33.855L-57.528,33.975L-57.43,33.975L-57.393,34.02L-57.369,34.14L-57.344,34.14L-57.295,34.2L-57.258,34.38L-57.271,34.455L-57.307,34.47L-57.344,34.53L-57.369,34.53L-57.406,34.62L-57.43,34.635L-57.43,34.71L-57.467,34.74L-57.455,34.815L-57.479,34.89L-57.528,34.965L-57.528,35.01L-57.59,35.07L-57.7,35.055L-57.762,35.01L-57.811,35.055L-57.872,35.025L-57.946,34.92L-58.093,34.935L-58.155,34.875L-58.216,34.89L-58.241,34.86L-58.265,34.89L-58.376,34.875L-58.376,34.935L-58.413,34.98L-58.597,34.935L-58.67,34.995L-58.719,34.995L-58.805,34.89L-58.916,34.86L-59.026,34.725L-59.039,34.56Z"><title>Libertador General Bernardo O'Higgins</title></path>
    <path id="cl-ai" class="cl-region" data-name="Aysén del General Carlos Ibáñez del Campo" d="M-62.293,48.78L-62.256,48.03L-62.023,47.655L-62.035,47.115L-62.109,47.04L-62.195,46.89L-62.182,46.62L-62.145,46.5L-61.654,45.6L-61.802,44.985L-61.838,44.895L-61.838,44.745L-61.728,44.58L-61.703,44.58L-61.519,44.43L-61.544,43.89L-61.531,43.83L-61.089,43.695L-60.844,43.65L-60.672,43.545L-60.61,43.53L-60.451,43.53L-60.328,43.575L-60.107,43.605L-59.825,43.68L-59.763,43.665L-59.739,43.635L-59.665,43.65L-59.665,43.62L-59.628,43.575L-59.579,43.575L-59.518,43.665L-59.518,43.71L-59.419,43.695L-59.383,43.725L-59.297,43.635L-59.186,43.62L-59.149,43.71L-59.063,43.815L-59.014,43.815L-58.953,43.89L-58.928,43.86L-58.793,43.875L-58.732,43.935L-58.744,43.98L-58.683,44.025L-58.67,44.07L-58.683,44.115L-58.732,44.16L-58.707,44.205L-58.732,44.265L-58.719,44.325L-58.658,44.34L-58.413,44.325L-58.376,44.37L-58.302,44.355L-58.191,44.43L-58.142,44.535L-58.155,44.625L-58.191,44.655L-58.241,44.655L-58.228,44.685L-58.241,44.76L-58.29,44.85L-58.363,44.88L-58.462,44.85L-58.511,44.805L-58.56,44.805L-58.584,44.835L-58.646,44.85L-58.744,44.82L-58.805,44.865L-58.719,44.865L-58.67,44.91L-58.548,44.925L-58.486,45.075L-58.351,45.21L-58.339,45.33L-58.4,45.405L-58.437,45.405L-58.437,45.435L-58.462,45.45L-58.462,45.525L-58.486,45.555L-58.56,45.585L-58.658,45.57L-58.707,45.66L-58.683,45.81L-58.634,45.825L-58.572,45.945L-58.584,46.02L-58.609,46.035L-58.621,46.08L-58.719,46.17L-58.67,46.245L-58.683,46.35L-58.621,46.5L-58.597,46.695L-58.621,46.74L-58.707,46.785L-58.732,46.83L-58.83,46.86L-58.855,46.905L-58.855,46.935L-58.83,46.935L-58.793,46.995L-58.805,47.07L-58.769,47.13L-58.793,47.28L-58.818,47.295L-58.891,47.28L-58.891,47.325L-58.941,47.385L-59.026,47.4L-59.039,47.445L-59.137,47.475L-59.125,47.52L-59.149,47.565L-59.149,47.625L-59.211,47.7L-59.235,47.7L-59.272,47.79L-59.297,47.91L-59.247,47.925L-59.235,48.015L-59.211,48.015L-59.137,48.12L-59.149,48.21L-59.088,48.27L-59.076,48.345L-59.112,48.405L-59.198,48.435L-59.198,48.48L-59.235,48.54L-59.346,48.585L-59.321,48.75L-59.321,48.81L-59.346,48.855L-59.518,48.96L-59.542,49.005L-59.591,49.035L-59.677,49.005L-59.714,49.095L-59.751,49.11L-59.751,49.14L-59.825,49.215L-59.837,49.26L-59.898,49.275L-60.561,48.78L-60.635,48.765L-60.819,48.78L-60.868,48.735L-61.065,48.765L-61.077,48.735L-61.151,48.705L-61.212,48.705L-61.249,48.675L-61.31,48.69L-61.384,48.645L-61.519,48.765L-61.568,48.765L-61.593,48.795L-61.679,48.78L-61.802,48.84L-62.244,48.855L-62.293,48.81L-62.293,48.78ZM-58.83,44.865L-58.842,44.85L-58.879,44.865L-58.867,44.88L-58.83,44.865Z"><title>Aysén del General Carlos Ibáñez del Campo</title></path>
    <path id="cl-ma" class="cl-region" data-name="Magallanes y Antártica Chilena" d="M-62.242,48.789L-62.147,48.788L-61.843,48.78L-61.765,48.76L-61.691,48.715L-61.613,48.735L-61.589,48.71L-61.536,48.695L-61.474,48.655L-61.441,48.63L-61.429,48.61L-61.384,48.58L-61.372,48.58L-61.363,48.588L-61.358,48.591L-61.353,48.597L-61.353,48.598L-61.339,48.61L-61.31,48.62L-61.229,48.62L-61.171,48.645L-61.134,48.635L-61.118,48.65L-61.118,48.66L-61.073,48.67L-61.032,48.705L-60.979,48.68L-60.889,48.675L-60.827,48.685L-60.791,48.72L-60.754,48.72L-60.746,48.71L-60.725,48.705L-60.713,48.69L-60.68,48.695L-60.668,48.705L-60.635,48.7L-60.602,48.72L-60.553,48.71L-59.911,49.18L-59.874,49.21L-59.87,49.26L-59.845,49.265L-59.837,49.25L-59.825,49.25L-59.816,49.265L-59.8,49.27L-59.792,49.265L-59.788,49.28L-59.837,49.29L-59.841,49.305L-59.833,49.31L-59.833,49.34L-59.861,49.355L-59.866,49.375L-59.857,49.375L-59.853,49.395L-59.845,49.4L-59.804,49.405L-59.784,49.42L-59.788,49.435L-59.784,49.445L-59.771,49.445L-59.763,49.485L-59.776,49.52L-59.87,49.625L-59.866,49.64L-59.875,49.652L-59.876,49.652L-59.876,49.653L-59.882,49.66L-59.886,49.68L-60.123,49.79L-60.125,49.794L-60.125,49.795L-60.125,49.795L-60.125,49.796L-60.125,49.796L-60.125,49.797L-60.125,49.797L-60.125,49.797L-60.128,49.805L-60.156,49.815L-60.152,49.845L-60.173,49.875L-60.173,49.9L-60.193,49.9L-60.197,49.91L-60.209,49.915L-60.213,49.945L-60.185,49.95L-60.168,49.965L-60.144,49.965L-60.132,49.955L-60.119,49.96L-60.119,50L-60.111,50.005L-60.111,50.015L-60.123,50.02L-60.119,50.03L-60.123,50.04L-60.132,50.04L-60.136,50.06L-60.16,50.055L-60.144,50.09L-60.173,50.1L-60.179,50.115L-60.178,50.115L-60.178,50.115L-60.178,50.115L-60.178,50.116L-60.178,50.116L-60.178,50.116L-60.178,50.116L-60.179,50.116L-60.179,50.117L-60.179,50.117L-60.179,50.117L-60.18,50.117L-60.18,50.117L-60.181,50.12L-60.181,50.128L-60.181,50.128L-60.18,50.128L-60.18,50.128L-60.18,50.129L-60.18,50.129L-60.18,50.129L-60.18,50.13L-60.18,50.13L-60.181,50.13L-60.181,50.13L-60.181,50.15L-60.164,50.15L-60.148,50.165L-60.144,50.18L-60.121,50.18L-60.121,50.18L-60.121,50.18L-60.12,50.18L-60.12,50.18L-60.12,50.18L-60.107,50.18L-60.101,50.2L-60.101,50.2L-60.1,50.2L-60.1,50.2L-60.1,50.2L-60.1,50.2L-60.1,50.2L-60.099,50.205L-60.123,50.22L-60.128,50.24L-60.111,50.245L-60.05,50.3L-60.087,50.34L-60.111,50.345L-60.107,50.35L-60.111,50.365L-60.099,50.375L-60.087,50.365L-60.058,50.37L-60.07,50.395L-60.062,50.415L-60.05,50.425L-60.05,50.465L-60.05,50.465L-60.049,50.465L-60.049,50.465L-60.049,50.466L-60.049,50.467L-60.049,50.467L-60.048,50.467L-60.048,50.468L-60.048,50.468L-60.048,50.468L-60.048,50.469L-60.048,50.469L-60.048,50.47L-60.048,50.47L-60.048,50.471L-60.047,50.471L-60.047,50.472L-60.047,50.472L-60.047,50.472L-60.047,50.473L-60.047,50.473L-60.047,50.474L-60.048,50.474L-60.048,50.475L-60.049,50.476L-60.049,50.477L-60.049,50.477L-60.049,50.478L-60.05,50.478L-60.05,50.485L-60.033,50.49L-60.033,50.505L-60.05,50.505L-60.054,50.515L-60.05,50.535L-60.042,50.535L-60.025,50.57L-60.001,50.57L-59.997,50.585L-59.988,50.59L-59.956,50.59L-59.947,50.605L-59.915,50.61L-59.894,50.64L-59.874,50.65L-59.882,50.66L-59.878,50.67L-59.89,50.675L-59.89,50.69L-59.899,50.701L-59.899,50.701L-59.9,50.703L-59.9,50.703L-59.901,50.703L-59.901,50.703L-59.906,50.71L-59.915,50.735L-59.902,50.745L-59.902,50.755L-59.882,50.76L-59.878,50.77L-59.911,50.805L-59.898,50.8L-59.878,50.775L-59.833,50.77L-59.829,50.78L-59.816,50.785L-59.792,50.755L-59.763,50.76L-59.759,50.75L-59.747,50.75L-59.747,50.74L-59.722,50.735L-59.718,50.705L-59.685,50.695L-59.685,50.68L-59.673,50.665L-59.665,50.67L-59.645,50.65L-59.608,50.645L-59.587,50.625L-59.55,50.625L-59.542,50.61L-59.534,50.61L-59.53,50.625L-59.522,50.625L-59.522,50.635L-59.514,50.64L-59.493,50.64L-59.493,50.65L-59.485,50.655L-59.452,50.65L-59.432,50.675L-59.419,50.675L-59.419,50.65L-59.403,50.64L-59.391,50.625L-59.391,50.615L-59.362,50.615L-59.354,50.6L-59.325,50.6L-59.313,50.615L-59.305,50.61L-59.284,50.615L-59.276,50.635L-59.231,50.61L-59.215,50.63L-59.215,50.645L-59.174,50.65L-59.174,50.675L-59.182,50.68L-59.186,50.7L-59.182,50.71L-59.201,50.716L-59.201,50.716L-59.201,50.716L-59.201,50.716L-59.201,50.717L-59.201,50.717L-59.203,50.717L-59.203,50.717L-59.203,50.717L-59.215,50.72L-59.215,50.73L-59.223,50.73L-59.223,50.755L-59.186,50.78L-59.149,50.835L-59.157,50.86L-59.141,50.87L-59.145,50.89L-59.137,50.905L-59.149,50.925L-59.153,50.94L-59.149,50.955L-59.157,50.965L-59.153,51.035L-59.17,51.04L-59.202,51.03L-59.231,51.035L-59.243,51.025L-59.243,51.08L-59.268,51.095L-59.272,51.115L-59.27,51.126L-59.27,51.126L-59.269,51.126L-59.269,51.126L-59.269,51.126L-59.269,51.127L-59.269,51.127L-59.269,51.127L-59.269,51.127L-59.269,51.128L-59.269,51.128L-59.269,51.128L-59.269,51.128L-59.269,51.128L-59.268,51.135L-59.256,51.15L-59.231,51.165L-59.219,51.205L-59.198,51.205L-59.186,51.195L-59.178,51.22L-59.149,51.24L-59.149,51.26L-59.162,51.29L-59.19,51.295L-59.191,51.301L-59.191,51.301L-59.191,51.301L-59.191,51.301L-59.191,51.302L-59.191,51.302L-59.192,51.302L-59.192,51.303L-59.192,51.303L-59.192,51.303L-59.192,51.304L-59.192,51.304L-59.192,51.304L-59.192,51.304L-59.192,51.305L-59.192,51.306L-59.192,51.306L-59.192,51.306L-59.192,51.307L-59.192,51.307L-59.192,51.307L-59.192,51.307L-59.193,51.307L-59.193,51.308L-59.194,51.315L-59.235,51.325L-59.239,51.34L-59.207,51.34L-59.19,51.36L-59.19,51.405L-59.215,51.425L-59.215,51.46L-59.207,51.46L-59.202,51.48L-59.223,51.48L-59.227,51.49L-59.219,51.525L-59.243,51.53L-59.26,51.52L-59.264,51.535L-59.288,51.55L-59.297,51.58L-59.269,51.587L-59.269,51.587L-59.269,51.588L-59.269,51.588L-59.26,51.59L-59.256,51.58L-59.202,51.585L-59.198,51.625L-59.17,51.63L-59.17,51.645L-59.178,51.65L-59.174,51.65L-59.174,51.68L-59.182,51.685L-59.178,51.7L-59.141,51.695L-59.108,51.705L-59.092,51.72L-59.071,51.72L-59.071,51.74L-59.039,51.74L-59.031,51.765L-58.998,51.77L-58.998,51.78L-58.969,51.795L-58.936,51.835L-58.928,51.835L-58.928,51.845L-58.912,51.865L-58.9,51.865L-58.895,51.88L-58.887,51.885L-58.891,51.895L-58.887,51.91L-58.879,51.91L-58.879,51.92L-58.883,51.925L-58.895,51.92L-58.945,51.955L-58.957,51.955L-58.961,51.965L-58.953,51.965L-58.949,51.975L-58.908,51.97L-58.9,51.975L-58.9,51.985L-58.883,51.985L-58.879,51.995L-57.299,51.995L-56.882,52.15L-56.64,52.145L-56.55,52.18L-56.472,52.2L-56.35,52.275L-56.247,52.28L-56.145,52.305L-56.133,52.32L-56.006,52.33L-56.006,52.39L-56.018,52.4L-56.161,52.66L-56.161,54.575L-56.149,54.81L-56.149,54.875L-56.161,54.895L-56.161,54.91L-56.12,54.895L-56.022,54.88L-55.863,54.885L-55.783,54.882L-55.776,54.882L-55.775,54.882L-55.773,54.882L-55.772,54.882L-55.727,54.88L-55.687,54.87L-55.609,54.87L-55.588,54.88L-55.538,54.887L-55.526,54.887L-55.52,54.889L-55.519,54.889L-55.437,54.9L-55.314,54.89L-55.285,54.915L-55.236,54.92L-55.224,54.91L-55.183,54.915L-55.06,54.9L-54.991,54.925L-54.946,54.925L-54.872,54.975L-54.811,54.965L-54.744,54.984L-54.727,54.988L-54.726,54.988L-54.726,54.988L-54.719,54.991L-54.688,55L-54.577,55.115L-54.468,55.118L-54.452,55.117L-54.444,55.117L-54.435,55.117L-54.427,55.118L-54.408,55.119L-54.369,55.12L-54.09,55.18L-54.09,55.255L-54.111,55.3L-54.377,55.625L-54.393,55.845L-54.409,55.895L-54.446,55.945L-54.471,55.965L-54.684,56.11L-54.778,56.14L-55.044,56.185L-55.158,56.175L-55.682,56.045L-55.744,56.015L-55.846,55.93L-56.82,55.95L-56.894,55.945L-56.992,55.915L-57.054,55.875L-57.234,55.645L-57.59,55.54L-57.852,55.425L-58.146,55.395L-58.232,55.375L-59.112,54.92L-59.898,54.83L-60.001,54.795L-60.05,54.76L-60.087,54.72L-60.087,54.71L-60.394,54.165L-61.073,53.42L-61.437,52.92L-61.458,52.865L-61.462,52.73L-61.458,52.69L-61.441,52.65L-61.667,52.55L-61.716,52.505L-61.748,52.445L-61.785,52.095L-61.961,51.625L-61.965,51.6L-61.961,51.555L-61.879,51.2L-62.031,50.915L-62.039,50.91L-62.084,50.68L-62.084,50.355L-62.072,50.115L-62.199,49.495L-62.26,49.115L-62.248,48.79L-62.242,48.79L-62.242,48.789ZM-56.251,56.73L-56.329,56.725L-56.419,56.7L-56.481,56.665L-56.534,56.615L-56.571,56.54L-56.575,56.43L-56.558,56.38L-56.521,56.33L-56.46,56.285L-56.395,56.26L-56.325,56.245L-56.223,56.245L-56.153,56.26L-56.079,56.29L-56.026,56.33L-55.989,56.37L-55.936,56.49L-55.936,56.55L-55.948,56.585L-55.973,56.625L-56.026,56.67L-56.112,56.71L-56.174,56.725L-56.251,56.73Z"><title>Magallanes y Antártica Chilena</title></path>
    <path id="cl-co" class="cl-region" data-name="Coquimbo" d="M-58.724,30.595L-58.715,30.57L-58.715,30.54L-58.707,30.535L-58.703,30.505L-58.711,30.47L-58.703,30.46L-58.699,30.425L-58.703,30.4L-58.691,30.37L-58.695,30.34L-58.683,30.33L-58.683,30.3L-58.658,30.235L-58.646,30.22L-58.625,30.22L-58.613,30.235L-58.613,30.255L-58.601,30.285L-58.568,30.28L-58.552,30.27L-58.556,30.245L-58.543,30.23L-58.531,30.23L-58.535,30.21L-58.527,30.185L-58.515,30.18L-58.515,30.165L-58.486,30.145L-58.462,30.175L-58.449,30.16L-58.441,30.13L-58.453,30.11L-58.449,30.075L-58.462,30.045L-58.458,30.035L-58.478,30.02L-58.478,29.985L-58.449,29.97L-58.437,29.955L-58.433,29.935L-58.413,29.915L-58.388,29.915L-58.38,29.935L-58.372,29.935L-58.363,29.915L-58.367,29.845L-58.392,29.83L-58.4,29.795L-58.413,29.785L-58.421,29.765L-58.417,29.735L-58.408,29.725L-58.408,29.695L-58.4,29.68L-58.4,29.64L-58.38,29.615L-58.417,29.555L-58.417,29.535L-58.408,29.525L-58.413,29.48L-58.396,29.46L-58.396,29.44L-58.404,29.43L-58.421,29.435L-58.433,29.42L-58.429,29.395L-58.413,29.39L-58.413,29.34L-58.482,29.275L-58.523,29.29L-58.535,29.28L-58.535,29.255L-58.543,29.26L-58.552,29.3L-58.584,29.3L-58.589,29.29L-58.584,29.245L-58.564,29.21L-58.539,29.215L-58.531,29.245L-58.519,29.235L-58.535,29.22L-58.548,29.19L-58.548,29.18L-58.535,29.165L-58.453,29.16L-58.445,29.14L-58.425,29.12L-58.4,29.12L-58.351,29.16L-58.318,29.155L-58.306,29.165L-58.277,29.165L-58.269,29.175L-58.257,29.265L-58.232,29.28L-58.204,29.275L-58.187,29.285L-58.175,29.3L-58.175,29.335L-58.146,29.31L-58.142,29.27L-58.13,29.26L-58.126,29.225L-58.114,29.21L-58.118,29.185L-58.114,29.16L-58.106,29.15L-58.073,29.14L-58.06,29.115L-58.044,29.11L-57.966,29.12L-57.954,29.1L-57.913,29.085L-57.917,29.055L-57.905,29.04L-57.88,29.03L-57.844,29.03L-57.807,29.015L-57.782,29.03L-57.749,29.02L-57.725,29.035L-57.721,29.065L-57.729,29.09L-57.717,29.105L-57.717,29.12L-57.692,29.15L-57.688,29.21L-57.668,29.235L-57.663,29.275L-57.672,29.285L-57.651,29.325L-57.651,29.34L-57.668,29.355L-57.663,29.37L-57.635,29.375L-57.623,29.355L-57.61,29.35L-57.549,29.35L-57.471,29.44L-57.447,29.5L-57.422,29.5L-57.414,29.51L-57.393,29.5L-57.373,29.51L-57.328,29.5L-57.303,29.475L-57.25,29.485L-57.242,29.515L-57.246,29.54L-57.23,29.58L-57.238,29.61L-57.238,29.645L-57.221,29.675L-57.209,29.675L-57.189,29.705L-57.189,29.74L-57.201,29.76L-57.209,29.8L-57.201,29.81L-57.201,29.84L-57.185,29.86L-57.189,29.875L-57.197,29.88L-57.205,29.97L-57.226,30L-57.221,30.015L-57.213,30.02L-57.213,30.035L-57.25,30.075L-57.242,30.09L-57.193,30.09L-57.172,30.11L-57.148,30.11L-57.131,30.135L-57.131,30.165L-57.14,30.175L-57.135,30.19L-57.148,30.205L-57.156,30.235L-57.164,30.24L-57.193,30.235L-57.189,30.27L-57.209,30.315L-57.209,30.33L-57.197,30.345L-57.205,30.37L-57.238,30.375L-57.258,30.405L-57.295,30.4L-57.311,30.415L-57.361,30.415L-57.377,30.395L-57.397,30.385L-57.381,30.43L-57.385,30.445L-57.402,30.475L-57.438,30.495L-57.434,30.525L-57.442,30.53L-57.442,30.56L-57.467,30.59L-57.467,30.605L-57.487,30.635L-57.483,30.675L-57.496,30.69L-57.487,30.735L-57.512,30.76L-57.508,30.77L-57.516,30.795L-57.512,30.81L-57.516,30.84L-57.537,30.875L-57.537,30.9L-57.549,30.93L-57.545,30.945L-57.537,30.945L-57.528,30.96L-57.532,30.995L-57.512,31.015L-57.508,31.055L-57.528,31.07L-57.557,31.065L-57.557,31.075L-57.586,31.11L-57.586,31.15L-57.631,31.19L-57.651,31.18L-57.672,31.115L-57.68,31.13L-57.692,31.135L-57.692,31.145L-57.708,31.165L-57.708,31.24L-57.717,31.25L-57.721,31.295L-57.733,31.315L-57.721,31.355L-57.721,31.41L-57.737,31.43L-57.737,31.46L-57.749,31.475L-57.749,31.49L-57.737,31.505L-57.745,31.54L-57.745,31.585L-57.725,31.625L-57.704,31.64L-57.7,31.67L-57.676,31.68L-57.672,31.69L-57.663,31.72L-57.663,31.745L-57.672,31.765L-57.655,31.805L-57.659,31.83L-57.643,31.835L-57.623,31.86L-57.524,31.865L-57.512,31.875L-57.508,31.895L-57.492,31.9L-57.459,31.95L-57.459,31.99L-57.492,32.01L-57.492,32.035L-57.508,32.055L-57.516,32.06L-57.524,32.055L-57.528,32.07L-57.561,32.07L-57.565,32.105L-57.537,32.125L-57.537,32.15L-57.545,32.17L-57.532,32.2L-57.537,32.24L-57.549,32.26L-57.553,32.29L-57.582,32.295L-57.606,32.285L-57.635,32.3L-57.651,32.3L-57.676,32.285L-57.68,32.27L-57.676,32.24L-57.692,32.225L-57.688,32.195L-57.725,32.185L-57.754,32.195L-57.766,32.185L-57.79,32.185L-57.811,32.175L-57.815,32.165L-57.844,32.155L-57.856,32.135L-57.852,32.08L-57.876,32.08L-57.884,32.07L-57.884,32.055L-57.901,32.045L-57.913,32.045L-57.93,32.06L-57.962,32.055L-57.975,32.07L-57.995,32.07L-58.015,32.085L-58.048,32.085L-58.056,32.1L-58.081,32.095L-58.097,32.065L-58.122,32.065L-58.134,32.055L-58.13,32.085L-58.138,32.095L-58.155,32.095L-58.171,32.115L-58.191,32.125L-58.224,32.17L-58.257,32.19L-58.277,32.19L-58.294,32.17L-58.294,32.155L-58.306,32.155L-58.314,32.18L-58.339,32.195L-58.347,32.21L-58.376,32.21L-58.4,32.225L-58.478,32.205L-58.49,32.19L-58.515,32.18L-58.523,32.2L-58.564,32.2L-58.576,32.19L-58.572,32.155L-58.58,32.13L-58.572,32.12L-58.564,32.025L-58.568,32L-58.552,31.97L-58.564,31.97L-58.572,31.96L-58.572,31.945L-58.564,31.935L-58.572,31.915L-58.568,31.89L-58.593,31.865L-58.597,31.84L-58.58,31.805L-58.564,31.8L-58.556,31.77L-58.584,31.75L-58.584,31.685L-58.593,31.675L-58.593,31.64L-58.613,31.61L-58.613,31.58L-58.605,31.565L-58.605,31.505L-58.625,31.465L-58.625,31.445L-58.638,31.42L-58.634,31.415L-58.646,31.4L-58.646,31.325L-58.662,31.305L-58.658,31.255L-58.666,31.22L-58.679,31.2L-58.687,31.155L-58.687,31.135L-58.679,31.125L-58.674,31.1L-58.683,31.075L-58.683,31.03L-58.679,31.015L-58.67,31.01L-58.67,30.975L-58.679,30.97L-58.683,30.95L-58.695,30.94L-58.699,30.925L-58.695,30.9L-58.703,30.89L-58.699,30.86L-58.707,30.85L-58.707,30.82L-58.719,30.765L-58.715,30.735L-58.724,30.725L-58.724,30.71L-58.711,30.69L-58.724,30.66L-58.724,30.595ZM-57.397,30.385L-57.397,30.38L-57.402,30.38L-57.397,30.385ZM-58.589,29.555L-58.589,29.54L-58.58,29.53L-58.564,29.53L-58.552,29.55L-58.556,29.56L-58.539,29.575L-58.543,29.6L-58.552,29.61L-58.572,29.61L-58.58,29.6L-58.576,29.575L-58.589,29.555Z"><title>Coquimbo</title></path>
    <path id="cl-at" class="cl-region" data-name="Atacama" d="M-58.589,29.08L-58.605,29.09L-58.638,29.06L-58.638,29.01L-58.605,28.98L-58.58,28.98L-58.572,28.95L-58.58,28.9L-58.556,28.84L-58.531,28.81L-58.507,28.81L-58.49,28.78L-58.466,28.78L-58.449,28.72L-58.392,28.66L-58.392,28.62L-58.417,28.59L-58.417,28.56L-58.4,28.53L-58.376,28.52L-58.376,28.44L-58.359,28.42L-58.318,28.42L-58.31,28.36L-58.294,28.35L-58.318,28.31L-58.286,28.23L-58.302,28.08L-58.277,28.06L-58.269,27.93L-58.253,27.91L-58.228,27.78L-58.187,27.71L-58.196,27.7L-58.187,27.64L-58.171,27.62L-58.114,27.63L-58.081,27.6L-58.073,27.48L-58.089,27.47L-58.097,27.42L-58.13,27.38L-58.106,27.31L-58.138,27.27L-58.122,27.21L-58.13,27.15L-58.097,27.08L-58.048,27.07L-58.032,27.02L-57.999,27.01L-58.015,26.85L-57.991,26.82L-57.975,26.76L-57.95,26.74L-57.95,26.68L-57.925,26.66L-57.925,26.62L-57.909,26.59L-57.917,26.5L-57.901,26.48L-57.909,26.38L-57.893,26.35L-57.868,26.34L-57.893,26.29L-57.876,26.26L-57.884,26.2L-57.909,26.16L-57.909,26.13L-57.876,26.11L-57.868,26.03L-57.827,26.02L-57.827,25.99L-57.794,25.96L-57.762,25.96L-57.672,25.91L-57.59,25.89L-57.557,25.86L-57.524,25.86L-57.508,25.88L-57.475,25.88L-57.459,25.9L-57.418,25.91L-57.361,25.91L-57.336,25.88L-57.23,25.85L-57.18,25.89L-57.066,25.88L-57.05,25.9L-56.935,25.91L-56.919,25.88L-56.886,25.87L-56.878,25.84L-56.853,25.82L-56.82,25.82L-56.796,25.84L-56.771,25.82L-56.73,25.83L-56.673,25.79L-56.607,25.78L-56.583,25.75L-56.591,25.69L-56.567,25.67L-56.583,25.57L-56.558,25.52L-56.526,25.49L-56.55,25.45L-56.542,25.35L-56.526,25.34L-56.436,25.35L-56.395,25.33L-56.329,25.33L-56.296,25.35L-56.272,25.33L-56.239,25.33L-56.223,25.29L-56.182,25.28L-56.157,25.25L-56.075,25.27L-56.059,25.3L-56.059,25.39L-56.108,25.44L-56.108,25.46L-56.075,25.49L-56.075,25.53L-56.051,25.58L-56.067,25.62L-56.026,25.69L-55.944,26.19L-55.953,26.21L-56.092,26.31L-56.116,26.48L-56.002,26.68L-55.846,26.91L-55.854,26.95L-55.887,26.99L-55.879,27.06L-55.895,27.08L-55.944,27.07L-55.977,27.09L-56.051,27.17L-56.1,27.17L-56.108,27.2L-56.133,27.22L-56.19,27.21L-56.239,27.14L-56.296,27.15L-56.296,27.18L-56.329,27.19L-56.337,27.25L-56.296,27.28L-56.296,27.32L-56.362,27.36L-56.37,27.43L-56.395,27.44L-56.411,27.47L-56.403,27.54L-56.468,27.62L-56.501,27.64L-56.485,27.7L-56.526,27.75L-56.526,27.81L-56.583,27.97L-56.616,28.01L-56.665,28.02L-56.665,28.06L-56.698,28.09L-56.706,28.15L-56.738,28.2L-56.763,28.21L-56.796,28.27L-56.845,28.24L-56.878,28.34L-56.902,28.37L-56.935,28.38L-56.951,28.43L-56.968,28.43L-56.992,28.48L-56.984,28.52L-56.984,28.55L-57,28.57L-56.992,28.58L-57.025,28.63L-57.033,28.67L-57.05,28.68L-57.05,28.71L-57.025,28.73L-57.017,28.78L-57.074,28.91L-57.066,28.98L-57.099,29.04L-57.099,29.15L-57.115,29.17L-57.18,29.17L-57.221,29.21L-57.221,29.27L-57.238,29.3L-57.271,29.31L-57.279,29.34L-57.279,29.37L-57.246,29.39L-57.23,29.51L-57.254,29.54L-57.295,29.54L-57.311,29.56L-57.426,29.57L-57.483,29.55L-57.516,29.47L-57.565,29.41L-57.59,29.41L-57.614,29.44L-57.696,29.42L-57.721,29.38L-57.713,29.32L-57.729,29.3L-57.721,29.25L-57.737,29.23L-57.737,29.18L-57.77,29.15L-57.778,29.09L-57.811,29.08L-57.835,29.1L-57.86,29.09L-57.86,29.11L-57.884,29.14L-57.95,29.18L-58.032,29.17L-58.04,29.19L-58.056,29.19L-58.081,29.25L-58.097,29.34L-58.155,29.39L-58.204,29.4L-58.228,29.38L-58.228,29.34L-58.253,29.34L-58.302,29.3L-58.318,29.22L-58.351,29.23L-58.4,29.19L-58.433,29.22L-58.49,29.23L-58.564,29.22L-58.572,29.16L-58.556,29.1L-58.564,29.07L-58.589,29.08Z"><title>Atacama</title></path>
    <path id="cl-vs" class="cl-region" data-name="Valparaíso" d="M-58.842,33.9L-58.801,33.75L-58.785,33.73L-58.744,33.73L-58.687,33.69L-58.662,33.54L-58.679,33.5L-58.736,33.44L-58.728,33.36L-58.695,33.32L-58.695,33.3L-58.728,33.25L-58.719,33.23L-58.736,33.21L-58.736,33.15L-58.76,33.13L-58.769,33.1L-58.76,33.07L-58.736,33.05L-58.695,33.06L-58.695,33.02L-58.67,32.98L-58.605,32.99L-58.605,32.91L-58.572,32.89L-58.572,32.86L-58.589,32.86L-58.605,32.82L-58.597,32.75L-58.572,32.73L-58.556,32.67L-58.515,32.66L-58.507,32.62L-58.523,32.62L-58.531,32.6L-58.548,32.51L-58.507,32.44L-58.498,32.39L-58.539,32.36L-58.548,32.28L-58.572,32.28L-58.589,32.25L-58.597,32.16L-58.58,32.14L-58.498,32.12L-58.458,32.15L-58.392,32.16L-58.351,32.14L-58.327,32.09L-58.277,32.09L-58.253,32.12L-58.187,32.05L-58.187,32.01L-58.163,31.99L-58.015,32.02L-57.958,31.99L-57.942,32L-57.925,31.98L-57.893,31.98L-57.811,32.03L-57.803,32.11L-57.786,32.11L-57.778,32.13L-57.754,32.11L-57.663,32.13L-57.639,32.16L-57.639,32.2L-57.623,32.22L-57.59,32.21L-57.549,32.24L-57.524,32.24L-57.451,32.31L-57.451,32.41L-57.402,32.43L-57.369,32.53L-57.377,32.6L-57.402,32.62L-57.385,32.67L-57.385,32.73L-57.32,32.81L-57.311,32.84L-57.279,32.85L-57.279,32.87L-57.262,32.88L-57.262,32.93L-57.287,32.98L-57.287,33.02L-57.311,33.06L-57.352,33.07L-57.393,33.13L-57.418,33.13L-57.459,33.16L-57.459,33.18L-57.492,33.22L-57.532,33.22L-57.557,33.19L-57.557,33.16L-57.582,33.14L-57.614,33.15L-57.663,33.09L-57.68,33.12L-57.704,33.13L-57.745,33.12L-57.811,32.99L-57.893,33L-57.917,32.97L-57.934,32.98L-58.015,32.97L-58.056,33.01L-58.089,33.01L-58.089,33.06L-58.106,33.09L-58.081,33.17L-58.089,33.22L-58.163,33.27L-58.204,33.26L-58.228,33.28L-58.269,33.27L-58.253,33.29L-58.253,33.33L-58.277,33.4L-58.343,33.45L-58.367,33.45L-58.376,33.5L-58.359,33.52L-58.359,33.6L-58.367,33.63L-58.425,33.69L-58.384,33.73L-58.384,33.79L-58.408,33.82L-58.498,33.83L-58.531,33.81L-58.548,33.82L-58.556,33.91L-58.613,33.92L-58.703,34L-58.769,33.98L-58.785,33.96L-58.826,33.96L-58.842,33.94L-58.842,33.9Z"><title>Valparaíso</title></path>
    <path id="cl-rm" class="cl-region" data-name="Región Metropolitana de Santiago" d="M-58.724,33.945L-58.719,33.93L-58.699,33.91L-58.67,33.9L-58.601,33.845L-58.593,33.85L-58.593,33.77L-58.576,33.745L-58.552,33.745L-58.548,33.755L-58.519,33.75L-58.511,33.76L-58.478,33.77L-58.433,33.765L-58.458,33.75L-58.458,33.735L-58.482,33.72L-58.498,33.675L-58.486,33.645L-58.462,33.64L-58.445,33.605L-58.433,33.6L-58.421,33.605L-58.408,33.59L-58.408,33.55L-58.425,33.54L-58.429,33.495L-58.417,33.47L-58.417,33.405L-58.392,33.385L-58.359,33.39L-58.351,33.37L-58.331,33.365L-58.314,33.35L-58.306,33.315L-58.322,33.28L-58.322,33.235L-58.306,33.215L-58.282,33.205L-58.265,33.21L-58.249,33.205L-58.228,33.215L-58.22,33.2L-58.187,33.205L-58.175,33.185L-58.155,33.19L-58.146,33.18L-58.134,33.18L-58.151,33.16L-58.146,33.135L-58.155,33.125L-58.155,33.1L-58.163,33.09L-58.159,33.07L-58.146,33.055L-58.159,33.015L-58.159,32.98L-58.138,32.955L-58.114,32.96L-58.089,32.945L-58.073,32.95L-58.073,32.94L-58.048,32.915L-58.003,32.905L-57.921,32.91L-57.905,32.9L-57.88,32.915L-57.876,32.935L-57.86,32.94L-57.827,32.925L-57.811,32.93L-57.803,32.92L-57.782,32.925L-57.77,32.96L-57.737,33L-57.737,33.025L-57.721,33.04L-57.713,33.065L-57.704,33.05L-57.696,33.05L-57.696,33.04L-57.672,33.005L-57.647,33L-57.618,33.015L-57.61,33.045L-57.614,33.065L-57.602,33.075L-57.602,33.085L-57.578,33.075L-57.557,33.09L-57.545,33.09L-57.532,33.11L-57.512,33.115L-57.512,33.125L-57.483,33.11L-57.471,33.09L-57.455,33.08L-57.426,33.075L-57.397,33.035L-57.381,33.03L-57.348,33.055L-57.34,33.085L-57.344,33.115L-57.332,33.12L-57.328,33.13L-57.336,33.16L-57.332,33.165L-57.336,33.21L-57.311,33.22L-57.307,33.23L-57.311,33.26L-57.291,33.285L-57.254,33.255L-57.254,33.235L-57.246,33.225L-57.23,33.225L-57.217,33.255L-57.189,33.26L-57.168,33.25L-57.148,33.27L-57.131,33.27L-57.107,33.315L-57.099,33.345L-57.107,33.39L-57.123,33.405L-57.119,33.43L-57.14,33.455L-57.135,33.475L-57.148,33.49L-57.152,33.525L-57.185,33.55L-57.176,33.595L-57.185,33.61L-57.18,33.66L-57.189,33.68L-57.176,33.705L-57.176,33.725L-57.205,33.765L-57.201,33.835L-57.168,33.88L-57.172,33.91L-57.185,33.915L-57.197,33.945L-57.168,33.95L-57.168,33.965L-57.14,34.015L-57.144,34.03L-57.164,34.05L-57.152,34.06L-57.148,34.075L-57.152,34.095L-57.172,34.13L-57.115,34.195L-57.119,34.25L-57.123,34.26L-57.144,34.27L-57.205,34.285L-57.217,34.31L-57.262,34.3L-57.279,34.27L-57.287,34.28L-57.299,34.28L-57.324,34.31L-57.352,34.3L-57.365,34.285L-57.365,34.225L-57.406,34.22L-57.41,34.21L-57.43,34.2L-57.438,34.18L-57.455,34.17L-57.455,34.135L-57.447,34.12L-57.455,34.11L-57.463,34.055L-57.492,34.05L-57.496,34.075L-57.508,34.09L-57.528,34.09L-57.537,34.08L-57.565,34.085L-57.59,34.075L-57.598,34.065L-57.602,34.03L-57.586,34L-57.606,33.98L-57.606,33.965L-57.627,33.94L-57.631,33.925L-57.627,33.9L-57.643,33.895L-57.655,33.875L-57.688,33.885L-57.7,33.88L-57.704,33.895L-57.725,33.91L-57.754,33.9L-57.766,33.915L-57.79,33.915L-57.811,33.93L-57.819,33.95L-57.839,33.96L-57.864,33.95L-57.88,33.93L-57.901,33.94L-57.921,33.965L-57.942,33.965L-57.934,34L-57.946,34.015L-57.954,34.045L-57.966,34.055L-57.991,34.05L-58.015,34.055L-58.015,34.08L-58.032,34.1L-58.056,34.1L-58.052,34.12L-58.036,34.135L-58.04,34.16L-58.097,34.195L-58.155,34.19L-58.175,34.205L-58.204,34.2L-58.212,34.185L-58.257,34.185L-58.286,34.175L-58.327,34.13L-58.331,34.11L-58.351,34.1L-58.355,34.075L-58.367,34.06L-58.392,34.07L-58.404,34.085L-58.425,34.08L-58.433,34.095L-58.449,34.095L-58.47,34.08L-58.478,34.05L-58.519,34.025L-58.56,34.03L-58.576,34.025L-58.584,34.045L-58.609,34.055L-58.634,34.02L-58.679,34.015L-58.687,33.995L-58.715,33.985L-58.724,33.945ZM-57.942,33.965L-57.942,33.96L-57.946,33.96L-57.942,33.965Z"><title>Región Metropolitana de Santiago</title></path>
    <path id="cl-lr" class="cl-region" data-name="Los Ríos" d="M-60.361,40.255L-60.369,40.235L-60.365,40.23L-60.369,40.19L-60.336,40.17L-60.328,40.14L-60.312,40.14L-60.32,40.105L-60.312,40.075L-60.324,40.045L-60.353,40.015L-60.353,39.995L-60.328,39.975L-60.328,39.95L-60.295,39.935L-60.267,39.94L-60.263,39.925L-60.246,39.91L-60.23,39.905L-60.226,39.91L-60.189,39.895L-60.185,39.885L-60.168,39.88L-60.16,39.845L-60.148,39.83L-60.111,39.84L-60.111,39.815L-60.103,39.805L-60.103,39.785L-60.095,39.77L-60.095,39.75L-60.111,39.73L-60.107,39.685L-60.091,39.67L-60.074,39.67L-60.07,39.645L-60.046,39.635L-60.025,39.59L-60.005,39.575L-60.013,39.565L-60.013,39.55L-60.001,39.525L-59.988,39.52L-59.988,39.495L-59.98,39.49L-59.992,39.47L-59.992,39.445L-59.98,39.435L-59.964,39.435L-59.956,39.425L-59.956,39.415L-59.964,39.415L-59.976,39.395L-59.972,39.375L-59.956,39.365L-59.923,39.39L-59.902,39.395L-59.89,39.395L-59.878,39.375L-59.841,39.375L-59.833,39.35L-59.8,39.32L-59.8,39.3L-59.792,39.285L-59.763,39.27L-59.735,39.28L-59.718,39.295L-59.706,39.29L-59.694,39.27L-59.645,39.265L-59.624,39.275L-59.604,39.32L-59.612,39.34L-59.628,39.35L-59.628,39.37L-59.64,39.38L-59.632,39.38L-59.628,39.39L-59.587,39.385L-59.563,39.415L-59.518,39.405L-59.489,39.42L-59.477,39.44L-59.456,39.425L-59.423,39.43L-59.407,39.42L-59.366,39.415L-59.354,39.45L-59.276,39.46L-59.256,39.48L-59.227,39.49L-59.219,39.485L-59.207,39.49L-59.182,39.47L-59.162,39.475L-59.149,39.495L-59.043,39.49L-59.002,39.455L-58.973,39.445L-58.961,39.43L-58.916,39.425L-58.895,39.4L-58.826,39.415L-58.814,39.425L-58.801,39.455L-58.781,39.46L-58.777,39.47L-58.765,39.47L-58.748,39.485L-58.703,39.475L-58.683,39.51L-58.683,39.535L-58.662,39.555L-58.662,39.575L-58.674,39.595L-58.679,39.645L-58.674,39.66L-58.658,39.665L-58.654,39.7L-58.683,39.725L-58.683,39.735L-58.666,39.75L-58.662,39.79L-58.65,39.805L-58.65,39.815L-58.666,39.835L-58.634,39.84L-58.593,39.89L-58.597,39.935L-58.613,39.945L-58.609,39.95L-58.613,39.98L-58.625,39.995L-58.646,39.99L-58.654,40.005L-58.654,40.025L-58.662,40.04L-58.65,40.07L-58.654,40.11L-58.683,40.135L-58.707,40.135L-58.736,40.115L-58.76,40.11L-58.76,40.145L-58.773,40.165L-58.76,40.175L-58.76,40.2L-58.773,40.21L-58.76,40.24L-58.752,40.24L-58.728,40.275L-58.715,40.26L-58.699,40.26L-58.674,40.275L-58.654,40.305L-58.658,40.325L-58.642,40.345L-58.642,40.37L-58.654,40.385L-58.666,40.385L-58.67,40.41L-58.687,40.425L-58.691,40.44L-58.719,40.455L-58.74,40.455L-58.777,40.43L-58.777,40.445L-58.789,40.455L-58.793,40.495L-58.801,40.51L-58.797,40.535L-58.81,40.545L-58.81,40.565L-58.826,40.575L-58.834,40.6L-58.871,40.61L-58.891,40.64L-58.9,40.64L-58.912,40.655L-58.945,40.66L-58.969,40.65L-58.981,40.67L-59.018,40.685L-59.076,40.68L-59.092,40.69L-59.112,40.69L-59.149,40.685L-59.157,40.675L-59.178,40.67L-59.182,40.685L-59.198,40.695L-59.231,40.695L-59.28,40.675L-59.301,40.675L-59.448,40.7L-59.485,40.665L-59.493,40.645L-59.514,40.645L-59.526,40.635L-59.546,40.635L-59.554,40.625L-59.583,40.62L-59.591,40.605L-59.608,40.595L-59.608,40.58L-59.616,40.58L-59.64,40.555L-59.653,40.555L-59.685,40.52L-59.69,40.505L-59.685,40.5L-59.698,40.485L-59.698,40.46L-59.706,40.46L-59.726,40.435L-59.726,40.425L-59.743,40.42L-59.743,40.41L-59.751,40.405L-59.788,40.405L-59.804,40.39L-59.816,40.39L-59.833,40.37L-59.866,40.37L-59.874,40.38L-59.894,40.38L-59.906,40.37L-59.919,40.375L-59.997,40.37L-60.005,40.355L-60.091,40.36L-60.107,40.35L-60.115,40.325L-60.132,40.325L-60.152,40.295L-60.173,40.31L-60.226,40.305L-60.238,40.32L-60.258,40.32L-60.267,40.31L-60.304,40.305L-60.32,40.295L-60.332,40.28L-60.332,40.265L-60.349,40.265L-60.361,40.255Z"><title>Los Ríos</title></path>
    <path id="cl-ml" class="cl-region" data-name="Maule" d="M-59.6,35.97L-59.579,35.94L-59.53,35.91L-59.518,35.895L-59.514,35.87L-59.493,35.855L-59.485,35.83L-59.419,35.79L-59.415,35.77L-59.432,35.705L-59.477,35.615L-59.464,35.555L-59.452,35.535L-59.423,35.52L-59.407,35.495L-59.383,35.49L-59.383,35.48L-59.354,35.45L-59.366,35.385L-59.346,35.365L-59.338,35.345L-59.321,35.34L-59.305,35.31L-59.288,35.3L-59.288,35.26L-59.276,35.22L-59.247,35.185L-59.239,35.185L-59.178,35.135L-59.125,35.11L-59.117,35.095L-59.108,35.06L-59.104,34.89L-59.092,34.87L-59.08,34.865L-59.076,34.815L-59.059,34.785L-59.039,34.765L-59.035,34.75L-59.014,34.73L-59.01,34.69L-58.99,34.665L-58.965,34.665L-58.953,34.68L-58.936,34.685L-58.92,34.705L-58.92,34.73L-58.9,34.735L-58.875,34.765L-58.875,34.79L-58.822,34.8L-58.793,34.82L-58.777,34.805L-58.76,34.81L-58.732,34.865L-58.711,34.88L-58.699,34.9L-58.691,34.865L-58.67,34.835L-58.634,34.84L-58.613,34.855L-58.597,34.845L-58.58,34.855L-58.552,34.85L-58.511,34.875L-58.486,34.86L-58.453,34.875L-58.449,34.83L-58.417,34.805L-58.404,34.81L-58.396,34.805L-58.396,34.795L-58.372,34.775L-58.347,34.77L-58.322,34.79L-58.322,34.805L-58.294,34.81L-58.286,34.785L-58.257,34.78L-58.232,34.765L-58.22,34.77L-58.196,34.805L-58.187,34.805L-58.179,34.785L-58.163,34.77L-58.142,34.78L-58.122,34.81L-58.093,34.825L-58.081,34.845L-58.036,34.83L-58.015,34.83L-57.987,34.845L-57.979,34.83L-57.925,34.84L-57.905,34.86L-57.901,34.875L-57.889,34.875L-57.868,34.905L-57.856,34.905L-57.827,34.955L-57.799,34.935L-57.786,34.94L-57.778,34.92L-57.737,34.915L-57.717,34.94L-57.717,34.95L-57.692,34.96L-57.688,34.97L-57.631,34.965L-57.59,34.99L-57.586,35L-57.582,35.04L-57.594,35.055L-57.59,35.08L-57.582,35.09L-57.582,35.11L-57.59,35.115L-57.582,35.135L-57.594,35.16L-57.594,35.18L-57.61,35.195L-57.618,35.19L-57.627,35.2L-57.688,35.225L-57.717,35.22L-57.741,35.225L-57.762,35.275L-57.737,35.29L-57.717,35.29L-57.708,35.3L-57.659,35.295L-57.647,35.3L-57.639,35.315L-57.643,35.33L-57.631,35.34L-57.631,35.37L-57.635,35.385L-57.651,35.395L-57.639,35.445L-57.643,35.465L-57.614,35.47L-57.606,35.5L-57.59,35.51L-57.594,35.54L-57.618,35.54L-57.614,35.58L-57.602,35.61L-57.623,35.645L-57.614,35.65L-57.614,35.675L-57.598,35.685L-57.59,35.73L-57.582,35.74L-57.582,35.76L-57.594,35.775L-57.59,35.78L-57.578,35.775L-57.545,35.795L-57.541,35.825L-57.569,35.85L-57.598,35.86L-57.598,35.875L-57.606,35.885L-57.635,35.895L-57.631,35.905L-57.594,35.905L-57.586,35.92L-57.586,35.93L-57.614,35.965L-57.594,35.985L-57.598,36.02L-57.59,36.025L-57.59,36.05L-57.602,36.065L-57.627,36.075L-57.631,36.085L-57.627,36.12L-57.635,36.17L-57.672,36.195L-57.688,36.19L-57.708,36.2L-57.733,36.18L-57.733,36.17L-57.758,36.16L-57.754,36.18L-57.778,36.21L-57.786,36.21L-57.786,36.22L-57.799,36.225L-57.815,36.26L-57.827,36.265L-57.839,36.26L-57.852,36.27L-57.848,36.31L-57.864,36.33L-57.864,36.34L-57.844,36.37L-57.844,36.4L-57.876,36.445L-57.917,36.45L-57.925,36.44L-57.934,36.45L-57.954,36.45L-57.966,36.44L-57.97,36.425L-57.987,36.435L-58.011,36.435L-58.015,36.475L-58.028,36.49L-58.052,36.495L-58.056,36.51L-58.073,36.515L-58.077,36.525L-58.106,36.525L-58.146,36.495L-58.183,36.48L-58.187,36.465L-58.196,36.46L-58.187,36.43L-58.191,36.395L-58.22,36.385L-58.237,36.42L-58.265,36.425L-58.269,36.45L-58.282,36.465L-58.29,36.465L-58.294,36.48L-58.322,36.485L-58.343,36.465L-58.351,36.495L-58.359,36.495L-58.367,36.54L-58.388,36.565L-58.404,36.565L-58.425,36.53L-58.453,36.53L-58.474,36.515L-58.507,36.435L-58.597,36.425L-58.634,36.395L-58.654,36.395L-58.699,36.375L-58.715,36.365L-58.728,36.345L-58.756,36.335L-58.765,36.315L-58.781,36.305L-58.797,36.275L-58.826,36.27L-58.834,36.28L-58.863,36.29L-58.904,36.275L-58.924,36.28L-58.949,36.255L-58.957,36.215L-58.994,36.175L-59.01,36.175L-59.031,36.2L-59.031,36.235L-59.047,36.265L-59.076,36.265L-59.084,36.25L-59.096,36.25L-59.108,36.235L-59.133,36.235L-59.133,36.245L-59.157,36.28L-59.194,36.27L-59.198,36.255L-59.215,36.255L-59.235,36.275L-59.256,36.275L-59.272,36.265L-59.276,36.25L-59.293,36.235L-59.297,36.21L-59.288,36.19L-59.301,36.175L-59.313,36.17L-59.333,36.175L-59.366,36.155L-59.366,36.1L-59.374,36.095L-59.419,36.1L-59.436,36.09L-59.444,36.075L-59.456,36.075L-59.46,36.065L-59.489,36.065L-59.493,36.05L-59.505,36.04L-59.534,36.045L-59.559,36.025L-59.583,36.035L-59.595,36.02L-59.6,35.97ZM-59.252,36.195L-59.235,36.195L-59.235,36.185L-59.252,36.19L-59.252,36.195Z"><title>Maule</title></path>
    <path id="cl-ta" class="cl-region" data-name="Tarapacá" d="M-57.553,19.3L-57.549,19.27L-57.553,19.22L-57.545,19.21L-57.471,19.16L-57.459,19.16L-57.451,19.145L-57.434,19.14L-57.381,19.09L-57.365,19.09L-57.352,19.075L-57.307,19.06L-57.262,19.025L-57.238,19.025L-57.213,19L-57.156,19.025L-57.131,19.02L-57.115,19.005L-57.107,18.98L-57.05,18.945L-57.033,18.965L-57.004,18.97L-56.964,19L-56.886,19L-56.874,19.01L-56.82,19.005L-56.796,19.03L-56.792,19.055L-56.779,19.055L-56.759,19.07L-56.726,19.07L-56.718,19.09L-56.71,19.09L-56.681,19.075L-56.657,19.08L-56.616,19.075L-56.612,19.065L-56.587,19.06L-56.571,19.03L-56.558,19.03L-56.55,19.005L-56.53,19.01L-56.517,18.99L-56.517,18.945L-56.505,18.93L-56.481,18.935L-56.44,18.915L-56.403,18.97L-56.382,19.03L-56.317,19.065L-56.165,19.24L-56.161,19.26L-56.104,19.275L-56.026,19.35L-55.981,19.41L-55.989,19.445L-56.018,19.455L-56.108,19.61L-56.124,19.62L-56.141,19.645L-56.137,19.655L-56.153,19.7L-56.169,19.72L-56.21,19.73L-56.194,19.74L-56.178,19.765L-56.169,19.765L-56.145,19.81L-56.092,19.825L-56.084,19.835L-56.092,19.885L-56.075,19.93L-56.1,20.025L-56.116,20.065L-56.124,20.07L-56.186,20.07L-56.231,20.09L-56.276,20.095L-56.28,20.105L-56.268,20.105L-56.26,20.115L-56.235,20.115L-56.227,20.125L-56.215,20.185L-56.219,20.195L-56.227,20.195L-56.223,20.225L-56.231,20.235L-56.223,20.24L-56.223,20.255L-56.198,20.305L-56.19,20.31L-56.19,20.345L-56.202,20.37L-56.255,20.39L-56.255,20.445L-56.206,20.495L-56.174,20.515L-56.161,20.515L-56.129,20.55L-56.096,20.55L-56.075,20.585L-56.051,20.59L-56.043,20.605L-56.034,20.605L-56.01,20.63L-56.014,20.66L-56.079,20.7L-56.084,20.73L-56.104,20.75L-56.092,20.77L-56.1,20.875L-56.075,20.92L-56.051,20.92L-56.043,20.93L-56.043,20.95L-56.088,21.075L-56.366,21.305L-56.734,21.415L-56.783,21.48L-56.939,21.65L-56.972,21.62L-56.988,21.57L-57.013,21.555L-57.017,21.525L-57.054,21.475L-57.099,21.465L-57.111,21.45L-57.115,21.46L-57.168,21.465L-57.242,21.445L-57.262,21.445L-57.299,21.46L-57.316,21.46L-57.34,21.445L-57.365,21.445L-57.402,21.35L-57.397,21.325L-57.373,21.31L-57.373,21.3L-57.393,21.255L-57.389,21.23L-57.397,21.22L-57.397,21.2L-57.41,21.185L-57.414,21.155L-57.43,21.135L-57.422,21.095L-57.442,21.075L-57.442,21.065L-57.467,21.025L-57.447,20.965L-57.426,20.94L-57.438,20.915L-57.434,20.885L-57.451,20.855L-57.459,20.855L-57.471,20.835L-57.492,20.82L-57.492,20.8L-57.475,20.79L-57.483,20.76L-57.483,20.715L-57.471,20.66L-57.483,20.63L-57.483,20.525L-57.459,20.495L-57.459,20.47L-57.451,20.455L-57.455,20.405L-57.467,20.39L-57.471,20.36L-57.455,20.33L-57.442,20.33L-57.426,20.285L-57.43,20.26L-57.442,20.25L-57.455,20.205L-57.438,20.18L-57.447,20.155L-57.434,20.14L-57.43,20.11L-57.422,20.1L-57.422,20.085L-57.43,20.075L-57.422,19.985L-57.434,19.97L-57.434,19.92L-57.442,19.905L-57.43,19.88L-57.455,19.835L-57.455,19.82L-57.442,19.805L-57.442,19.785L-57.451,19.77L-57.447,19.725L-57.463,19.705L-57.459,19.685L-57.467,19.655L-57.487,19.645L-57.492,19.63L-57.516,19.61L-57.516,19.59L-57.508,19.58L-57.492,19.58L-57.496,19.56L-57.487,19.505L-57.496,19.49L-57.516,19.385L-57.532,19.365L-57.537,19.335L-57.549,19.325L-57.553,19.3Z"><title>Tarapacá</title></path>
    <path id="cl-ap" class="cl-region" data-name="Arica y Parinacota" d="M-57.627,18.36L-57.631,18.355L-57.627,18.335L-57.598,18.305L-57.569,18.29L-57.43,18.3L-57.352,18.25L-57.283,18.245L-57.238,18.185L-57.201,18.155L-57.168,18.105L-57.135,18.03L-57.115,17.955L-57.14,17.92L-57.156,17.875L-57.156,17.77L-57.172,17.755L-57.176,17.73L-57.176,17.695L-57.152,17.635L-57.135,17.625L-57.033,17.64L-56.923,17.535L-56.878,17.48L-56.857,17.48L-56.853,17.595L-56.743,17.725L-56.743,17.755L-56.722,17.785L-56.722,17.82L-56.714,17.845L-56.714,17.94L-56.71,17.945L-56.702,17.935L-56.685,17.935L-56.677,17.96L-56.657,17.96L-56.636,17.975L-56.624,17.97L-56.612,17.98L-56.587,17.98L-56.558,18L-56.513,18.055L-56.534,18.105L-56.55,18.115L-56.554,18.13L-56.575,18.14L-56.583,18.165L-56.562,18.19L-56.53,18.21L-56.517,18.235L-56.53,18.285L-56.501,18.31L-56.501,18.335L-56.509,18.345L-56.505,18.425L-56.468,18.475L-56.468,18.49L-56.476,18.5L-56.472,18.53L-56.481,18.545L-56.472,18.605L-56.481,18.625L-56.464,18.65L-56.448,18.735L-56.407,18.835L-56.395,18.895L-56.415,18.925L-56.415,18.935L-56.444,18.965L-56.481,18.975L-56.476,19.005L-56.489,19.025L-56.497,19.025L-56.517,19.05L-56.53,19.05L-56.538,19.07L-56.554,19.075L-56.575,19.1L-56.591,19.1L-56.595,19.115L-56.607,19.125L-56.628,19.115L-56.644,19.13L-56.657,19.13L-56.669,19.115L-56.677,19.115L-56.685,19.125L-56.71,19.13L-56.73,19.155L-56.751,19.155L-56.759,19.145L-56.759,19.11L-56.816,19.09L-56.828,19.07L-56.828,19.045L-56.882,19.05L-56.894,19.04L-56.923,19.045L-56.972,19.04L-56.98,19.03L-57.004,19.025L-57.013,19.01L-57.045,19.005L-57.058,18.99L-57.082,19.01L-57.103,19.05L-57.119,19.06L-57.164,19.065L-57.205,19.045L-57.23,19.065L-57.254,19.065L-57.295,19.1L-57.311,19.1L-57.365,19.13L-57.406,19.16L-57.41,19.17L-57.426,19.175L-57.442,19.195L-57.479,19.21L-57.508,19.235L-57.541,19.25L-57.553,19.24L-57.553,19.205L-57.541,19.195L-57.541,19.15L-57.553,19.135L-57.553,19.1L-57.573,19.055L-57.582,19.015L-57.573,19.005L-57.573,18.96L-57.582,18.955L-57.59,18.87L-57.606,18.845L-57.614,18.805L-57.61,18.76L-57.598,18.745L-57.602,18.71L-57.594,18.69L-57.606,18.66L-57.606,18.635L-57.598,18.625L-57.598,18.555L-57.594,18.53L-57.582,18.52L-57.594,18.475L-57.582,18.45L-57.569,18.445L-57.627,18.36Z"><title>Arica y Parinacota</title></path>
    <path id="cl-an" class="cl-region" data-name="Antofagasta" d="M-57.921,25.82L-57.921,25.805L-57.913,25.8L-57.917,25.77L-57.909,25.76L-57.893,25.76L-57.884,25.735L-57.884,25.67L-57.868,25.64L-57.852,25.64L-57.844,25.63L-57.848,25.625L-57.844,25.555L-57.852,25.55L-57.848,25.52L-57.819,25.485L-57.79,25.49L-57.77,25.47L-57.749,25.465L-57.749,25.41L-57.733,25.375L-57.717,25.375L-57.708,25.385L-57.704,25.37L-57.688,25.37L-57.684,25.345L-57.692,25.29L-57.676,25.25L-57.68,25.185L-57.692,25.175L-57.696,25.145L-57.704,25.135L-57.721,25.135L-57.733,25.12L-57.737,25.095L-57.729,25.075L-57.717,25.065L-57.717,25.04L-57.7,25L-57.713,24.97L-57.725,24.965L-57.725,24.955L-57.733,24.955L-57.754,24.92L-57.754,24.89L-57.745,24.87L-57.766,24.85L-57.77,24.81L-57.766,24.78L-57.794,24.735L-57.794,24.71L-57.782,24.7L-57.79,24.65L-57.778,24.635L-57.778,24.61L-57.77,24.595L-57.794,24.56L-57.794,24.54L-57.786,24.5L-57.778,24.49L-57.782,24.47L-57.766,24.43L-57.774,24.36L-57.762,24.35L-57.77,24.34L-57.77,24.325L-57.758,24.305L-57.754,24.28L-57.758,24.245L-57.745,24.23L-57.745,24.175L-57.737,24.17L-57.745,24.115L-57.729,24.1L-57.737,24.035L-57.745,24.015L-57.737,23.995L-57.741,23.915L-57.725,23.905L-57.749,23.875L-57.749,23.855L-57.741,23.84L-57.729,23.835L-57.733,23.79L-57.696,23.74L-57.684,23.74L-57.676,23.705L-57.663,23.69L-57.655,23.64L-57.643,23.63L-57.643,23.58L-57.655,23.565L-57.651,23.54L-57.663,23.515L-57.7,23.485L-57.708,23.485L-57.708,23.5L-57.721,23.515L-57.725,23.54L-57.749,23.56L-57.786,23.545L-57.79,23.535L-57.823,23.54L-57.835,23.52L-57.823,23.43L-57.815,23.42L-57.819,23.355L-57.803,23.33L-57.815,23.3L-57.811,23.22L-57.794,23.195L-57.778,23.185L-57.79,23.165L-57.79,23.145L-57.782,23.13L-57.794,23.12L-57.794,23.075L-57.778,23.065L-57.758,23.03L-57.745,23.03L-57.733,23.005L-57.713,23.005L-57.7,23.02L-57.696,23.07L-57.688,23.08L-57.639,23.065L-57.627,23.045L-57.61,23.035L-57.594,23.005L-57.582,22.955L-57.569,22.945L-57.569,22.915L-57.557,22.905L-57.557,22.875L-57.573,22.835L-57.578,22.795L-57.573,22.75L-57.557,22.74L-57.549,22.695L-57.557,22.65L-57.553,22.635L-57.541,22.63L-57.553,22.565L-57.541,22.535L-57.524,22.53L-57.52,22.5L-57.52,22.49L-57.537,22.475L-57.537,22.41L-57.524,22.39L-57.528,22.345L-57.524,22.315L-57.516,22.31L-57.524,22.285L-57.52,22.27L-57.512,22.265L-57.516,22.24L-57.508,22.23L-57.504,22.195L-57.508,22.16L-57.496,22.12L-57.5,22.085L-57.492,22.075L-57.479,22.075L-57.475,22.055L-57.483,22.01L-57.467,21.99L-57.471,21.965L-57.459,21.94L-57.463,21.92L-57.475,21.91L-57.475,21.895L-57.467,21.88L-57.447,21.875L-57.438,21.855L-57.438,21.795L-57.451,21.77L-57.438,21.715L-57.447,21.7L-57.442,21.645L-57.438,21.625L-57.43,21.615L-57.418,21.615L-57.397,21.59L-57.397,21.55L-57.377,21.525L-57.389,21.49L-57.373,21.46L-57.369,21.425L-57.361,21.41L-57.348,21.405L-57.328,21.405L-57.307,21.42L-57.271,21.405L-57.217,21.405L-57.209,21.415L-57.135,21.42L-57.119,21.4L-57.103,21.4L-57.078,21.43L-57.045,21.43L-57.021,21.445L-57.013,21.47L-56.992,21.49L-56.98,21.53L-56.959,21.55L-56.939,21.6L-56.751,21.38L-56.378,21.265L-56.116,21.05L-56.071,20.925L-56.018,20.925L-56.014,20.915L-55.998,20.915L-55.895,21.085L-55.797,21.295L-55.797,21.595L-55.748,21.67L-55.727,21.73L-55.699,21.77L-55.707,21.97L-55.662,22.02L-55.646,22.025L-55.641,22.035L-55.629,22.035L-55.621,22.045L-55.621,22.07L-55.609,22.075L-55.609,22.09L-55.601,22.1L-55.601,22.135L-55.613,22.165L-55.596,22.19L-55.592,22.205L-55.596,22.215L-55.584,22.235L-55.588,22.255L-55.58,22.265L-55.58,22.28L-55.596,22.295L-55.601,22.32L-55.592,22.34L-55.596,22.37L-55.592,22.38L-55.572,22.39L-55.568,22.42L-55.556,22.43L-55.556,22.455L-55.564,22.46L-55.564,22.495L-55.551,22.51L-55.535,22.51L-55.519,22.525L-55.523,22.56L-55.515,22.57L-55.515,22.595L-55.531,22.61L-55.535,22.635L-55.547,22.645L-55.543,22.7L-55.556,22.72L-55.543,22.73L-55.539,22.745L-55.547,22.76L-55.551,22.815L-55.539,22.825L-55.515,22.825L-55.498,22.86L-55.314,22.88L-54.987,22.795L-54.823,22.99L-54.888,23.26L-55.097,24.045L-55.105,24.055L-55.858,24.415L-55.867,24.42L-55.871,24.445L-55.883,24.46L-55.891,24.46L-55.903,24.505L-55.973,24.51L-55.981,24.52L-55.981,24.54L-55.998,24.58L-56.006,24.585L-56.006,24.615L-56.034,24.64L-56.051,24.645L-56.051,24.67L-56.059,24.69L-56.071,24.7L-56.075,24.72L-56.096,24.735L-56.096,24.76L-56.112,24.79L-56.096,24.8L-56.084,24.84L-56.088,24.845L-56.079,24.855L-56.063,24.855L-56.051,24.87L-56.051,24.88L-56.014,24.885L-56.006,24.895L-56.002,24.945L-55.985,24.96L-55.989,25.005L-55.985,25.015L-55.973,25.01L-55.961,25.02L-55.948,25.075L-55.932,25.1L-55.932,25.12L-55.993,25.165L-56.006,25.165L-56.022,25.15L-56.055,25.18L-56.063,25.18L-56.067,25.185L-56.059,25.21L-56.071,25.24L-56.079,25.24L-56.079,25.26L-56.088,25.27L-56.084,25.3L-56.092,25.31L-56.108,25.32L-56.141,25.315L-56.169,25.345L-56.194,25.345L-56.215,25.385L-56.235,25.385L-56.251,25.41L-56.276,25.4L-56.292,25.42L-56.317,25.42L-56.341,25.395L-56.411,25.395L-56.448,25.41L-56.472,25.4L-56.472,25.42L-56.485,25.44L-56.472,25.45L-56.464,25.51L-56.472,25.525L-56.485,25.525L-56.501,25.55L-56.517,25.555L-56.526,25.59L-56.513,25.67L-56.534,25.71L-56.534,25.765L-56.546,25.785L-56.546,25.805L-56.554,25.82L-56.579,25.825L-56.591,25.84L-56.665,25.855L-56.673,25.875L-56.693,25.885L-56.706,25.88L-56.722,25.89L-56.759,25.885L-56.779,25.9L-56.804,25.9L-56.833,25.88L-56.833,25.895L-56.849,25.915L-56.857,25.915L-56.874,25.935L-56.886,25.935L-56.886,25.96L-56.894,25.97L-57,25.96L-57.041,25.965L-57.082,25.94L-57.152,25.945L-57.172,25.965L-57.193,25.965L-57.234,25.915L-57.316,25.94L-57.356,25.99L-57.369,25.995L-57.381,25.985L-57.381,25.97L-57.434,25.975L-57.442,25.96L-57.467,25.965L-57.496,25.94L-57.5,25.95L-57.524,25.95L-57.545,25.92L-57.561,25.95L-57.594,25.95L-57.635,25.965L-57.643,25.975L-57.668,25.975L-57.672,25.985L-57.684,25.985L-57.717,26.01L-57.729,26.005L-57.729,26.015L-57.745,26.03L-57.766,26.025L-57.762,26.055L-57.778,26.08L-57.856,26.075L-57.86,26.055L-57.848,26.04L-57.839,26.04L-57.839,26.02L-57.831,26.005L-57.844,25.98L-57.844,25.965L-57.893,25.905L-57.897,25.855L-57.921,25.835L-57.921,25.82Z"><title>Antofagasta</title></path>
    <path id="cl-nb" class="cl-region" data-name="Ñuble" d="M-59.681,36.44L-59.665,36.36L-59.645,36.335L-59.62,36.275L-59.62,36.245L-59.632,36.205L-59.628,36.17L-59.616,36.155L-59.624,36.085L-59.612,36.06L-59.6,36.055L-59.595,36.005L-59.575,35.985L-59.55,35.985L-59.53,36L-59.514,35.995L-59.493,36.005L-59.46,35.995L-59.436,36.02L-59.428,36.04L-59.419,36.04L-59.407,36.055L-59.333,36.055L-59.321,36.07L-59.329,36.095L-59.325,36.13L-59.288,36.135L-59.272,36.155L-59.235,36.135L-59.223,36.14L-59.219,36.155L-59.198,36.165L-59.202,36.215L-59.182,36.22L-59.174,36.235L-59.162,36.225L-59.157,36.205L-59.137,36.185L-59.108,36.19L-59.067,36.215L-59.063,36.18L-59.039,36.155L-59.039,36.11L-58.998,36.11L-58.973,36.15L-58.953,36.155L-58.936,36.185L-58.916,36.2L-58.912,36.23L-58.867,36.245L-58.846,36.24L-58.834,36.225L-58.781,36.235L-58.76,36.26L-58.756,36.275L-58.736,36.29L-58.732,36.305L-58.707,36.31L-58.695,36.33L-58.662,36.35L-58.642,36.355L-58.634,36.35L-58.609,36.37L-58.589,36.375L-58.584,36.385L-58.494,36.395L-58.49,36.405L-58.466,36.42L-58.466,36.44L-58.445,36.49L-58.408,36.49L-58.396,36.505L-58.388,36.47L-58.38,36.465L-58.363,36.43L-58.335,36.42L-58.314,36.44L-58.298,36.425L-58.29,36.395L-58.257,36.38L-58.249,36.36L-58.241,36.36L-58.237,36.35L-58.22,36.34L-58.183,36.35L-58.159,36.37L-58.159,36.445L-58.134,36.465L-58.146,36.615L-58.13,36.645L-58.118,36.65L-58.11,36.68L-58.118,36.71L-58.13,36.72L-58.146,36.72L-58.167,36.735L-58.183,36.735L-58.187,36.725L-58.196,36.725L-58.204,36.765L-58.212,36.775L-58.212,36.82L-58.224,36.835L-58.204,36.86L-58.204,36.88L-58.216,36.89L-58.22,36.905L-58.191,36.905L-58.179,36.915L-58.175,36.94L-58.187,36.96L-58.187,36.975L-58.2,36.99L-58.216,36.99L-58.237,37.005L-58.224,37.02L-58.22,37.055L-58.212,37.055L-58.204,37.065L-58.204,37.08L-58.187,37.095L-58.183,37.12L-58.204,37.135L-58.261,37.135L-58.273,37.12L-58.351,37.13L-58.359,37.12L-58.367,37.125L-58.38,37.12L-58.4,37.095L-58.425,37.09L-58.445,37.1L-58.449,37.11L-58.466,37.11L-58.474,37.095L-58.511,37.08L-58.527,37.035L-58.548,37.025L-58.552,37.03L-58.548,37.09L-58.56,37.105L-58.564,37.145L-58.58,37.155L-58.605,37.145L-58.621,37.155L-58.654,37.15L-58.67,37.165L-58.687,37.165L-58.711,37.145L-58.744,37.14L-58.752,37.13L-58.777,37.13L-58.797,37.145L-58.797,37.16L-58.81,37.18L-58.822,37.18L-58.85,37.205L-58.936,37.215L-58.949,37.2L-58.973,37.19L-58.973,37.2L-58.99,37.215L-59.035,37.2L-59.047,37.2L-59.059,37.215L-59.104,37.215L-59.121,37.205L-59.17,37.215L-59.182,37.2L-59.186,37.17L-59.186,37.145L-59.174,37.135L-59.178,37.11L-59.17,37.1L-59.166,37.075L-59.125,37.06L-59.112,37.04L-59.149,37.02L-59.178,37.02L-59.194,37.005L-59.211,37.005L-59.235,36.985L-59.239,36.96L-59.256,36.95L-59.26,36.935L-59.272,36.95L-59.293,36.945L-59.313,36.95L-59.329,36.945L-59.342,36.925L-59.346,36.95L-59.358,36.96L-59.403,36.945L-59.423,36.95L-59.44,36.94L-59.485,36.94L-59.497,36.91L-59.493,36.885L-59.469,36.86L-59.428,36.87L-59.419,36.85L-59.444,36.82L-59.44,36.8L-59.452,36.77L-59.444,36.74L-59.464,36.705L-59.481,36.7L-59.485,36.69L-59.509,36.675L-59.534,36.675L-59.559,36.645L-59.579,36.645L-59.591,36.635L-59.591,36.625L-59.608,36.62L-59.612,36.57L-59.632,36.555L-59.636,36.53L-59.62,36.49L-59.624,36.48L-59.673,36.47L-59.681,36.44Z"><title>Ñuble</title></path>
  </g>
</svg>